<svg width="10" height="27" viewBox="0 0 10 27" fill="none" xmlns="http://www.w3.org/2000/svg">
<path d="M4.80114 12.1193C4.44318 12.1136 4.08523 12.0455 3.72727 11.9148C3.36932 11.7841 3.04261 11.5639 2.74716 11.2543C2.4517 10.9418 2.21449 10.5199 2.03551 9.98864C1.85653 9.45455 1.76705 8.78409 1.76705 7.97727C1.76705 7.20455 1.83949 6.51989 1.98438 5.9233C2.12926 5.32386 2.33949 4.8196 2.61506 4.41051C2.89063 3.99858 3.22301 3.68608 3.61222 3.47301C4.00426 3.25994 4.44602 3.15341 4.9375 3.15341C5.42614 3.15341 5.8608 3.25142 6.24148 3.44744C6.625 3.64062 6.9375 3.91051 7.17898 4.2571C7.42045 4.60369 7.5767 5.00284 7.64773 5.45455H6.60795C6.51136 5.0625 6.32386 4.73722 6.04545 4.47869C5.76705 4.22017 5.39773 4.09091 4.9375 4.09091C4.26136 4.09091 3.72869 4.38494 3.33949 4.97301C2.95313 5.56108 2.75852 6.38636 2.75568 7.44886H2.82386C2.98295 7.20739 3.17188 7.00142 3.39062 6.83097C3.61222 6.65767 3.85653 6.52415 4.12358 6.4304C4.39063 6.33665 4.6733 6.28977 4.97159 6.28977C5.47159 6.28977 5.92898 6.41477 6.34375 6.66477C6.75852 6.91193 7.09091 7.25426 7.34091 7.69176C7.59091 8.12642 7.71591 8.625 7.71591 9.1875C7.71591 9.72727 7.59517 10.2216 7.35369 10.6705C7.11222 11.1165 6.77273 11.4716 6.33523 11.7358C5.90057 11.9972 5.3892 12.125 4.80114 12.1193ZM4.80114 11.1818C5.15909 11.1818 5.48011 11.0923 5.7642 10.9134C6.05114 10.7344 6.27699 10.4943 6.44176 10.1932C6.60938 9.89205 6.69318 9.55682 6.69318 9.1875C6.69318 8.8267 6.61222 8.49858 6.45028 8.20312C6.29119 7.90483 6.07102 7.66761 5.78977 7.49148C5.51136 7.31534 5.19318 7.22727 4.83523 7.22727C4.56534 7.22727 4.31392 7.28125 4.08097 7.3892C3.84801 7.49432 3.64347 7.6392 3.46733 7.82386C3.29403 8.00852 3.15767 8.22017 3.05824 8.45881C2.95881 8.6946 2.90909 8.94318 2.90909 9.20455C2.90909 9.55114 2.99006 9.875 3.15199 10.1761C3.31676 10.4773 3.54119 10.7202 3.82528 10.9048C4.11222 11.0895 4.4375 11.1818 4.80114 11.1818Z" fill="#4D9DE0"/>
<path d="M4.69886 26.1193C4.11364 26.1193 3.59659 26.0156 3.14773 25.8082C2.7017 25.598 2.35369 25.3097 2.10369 24.9432C1.85369 24.5739 1.73011 24.1534 1.73295 23.6818C1.73011 23.3125 1.80256 22.9716 1.95028 22.6591C2.09801 22.3437 2.29972 22.081 2.5554 21.8707C2.81392 21.6577 3.10227 21.5227 3.42045 21.4659V21.4148C3.00284 21.3068 2.67045 21.0724 2.4233 20.7116C2.17614 20.348 2.05398 19.9347 2.05682 19.4716C2.05398 19.0284 2.16619 18.6321 2.39347 18.2827C2.62074 17.9332 2.93324 17.6577 3.33097 17.456C3.73153 17.2543 4.1875 17.1534 4.69886 17.1534C5.20455 17.1534 5.65625 17.2543 6.05398 17.456C6.4517 17.6577 6.7642 17.9332 6.99148 18.2827C7.22159 18.6321 7.33807 19.0284 7.34091 19.4716C7.33807 19.9347 7.21165 20.348 6.96165 20.7116C6.71449 21.0724 6.38636 21.3068 5.97727 21.4148V21.4659C6.29261 21.5227 6.5767 21.6577 6.82955 21.8707C7.08239 22.081 7.28409 22.3437 7.43466 22.6591C7.58523 22.9716 7.66193 23.3125 7.66477 23.6818C7.66193 24.1534 7.53409 24.5739 7.28125 24.9432C7.03125 25.3097 6.68324 25.598 6.23722 25.8082C5.79403 26.0156 5.28125 26.1193 4.69886 26.1193ZM4.69886 25.1818C5.09375 25.1818 5.43466 25.1179 5.72159 24.9901C6.00852 24.8622 6.23011 24.6818 6.38636 24.4489C6.54261 24.2159 6.62216 23.9432 6.625 23.6307C6.62216 23.3011 6.53693 23.0099 6.36932 22.7571C6.2017 22.5043 5.97301 22.3054 5.68324 22.1605C5.39631 22.0156 5.06818 21.9432 4.69886 21.9432C4.3267 21.9432 3.99432 22.0156 3.7017 22.1605C3.41193 22.3054 3.18324 22.5043 3.01562 22.7571C2.85085 23.0099 2.76989 23.3011 2.77273 23.6307C2.76989 23.9432 2.84517 24.2159 2.99858 24.4489C3.15483 24.6818 3.37784 24.8622 3.66761 24.9901C3.95739 25.1179 4.30114 25.1818 4.69886 25.1818ZM4.69886 21.0398C5.01136 21.0398 5.28835 20.9773 5.52983 20.8523C5.77415 20.7273 5.96591 20.5526 6.10511 20.3281C6.24432 20.1037 6.31534 19.8409 6.31818 19.5398C6.31534 19.2443 6.24574 18.9872 6.10938 18.7685C5.97301 18.5469 5.78409 18.3764 5.54261 18.2571C5.30114 18.1349 5.01989 18.0739 4.69886 18.0739C4.37216 18.0739 4.08665 18.1349 3.84233 18.2571C3.59801 18.3764 3.40909 18.5469 3.27557 18.7685C3.14205 18.9872 3.0767 19.2443 3.07955 19.5398C3.0767 19.8409 3.14347 20.1037 3.27983 20.3281C3.41903 20.5526 3.6108 20.7273 3.85511 20.8523C4.09943 20.9773 4.38068 21.0398 4.69886 21.0398Z" fill="#4D9DE0"/>
<line y1="14.5" x2="10" y2="14.5" stroke="black"/>
</svg>
