<svg width="10" height="27" viewBox="0 0 10 27" fill="none" xmlns="http://www.w3.org/2000/svg">
<path d="M5.97159 3.27273V12H4.91477V4.38068H4.86364L2.73295 5.79545V4.72159L4.91477 3.27273H5.97159Z" fill="#FF8352"/>
<path d="M4.63068 26.1193C4.13068 26.1193 3.6804 26.0199 3.27983 25.821C2.87926 25.6222 2.55824 25.3494 2.31676 25.0028C2.07528 24.6562 1.94318 24.2614 1.92045 23.8182H2.94318C2.98295 24.2131 3.16193 24.5398 3.48011 24.7983C3.80114 25.054 4.18466 25.1818 4.63068 25.1818C4.98864 25.1818 5.30682 25.098 5.58523 24.9304C5.86648 24.7628 6.08665 24.5327 6.24574 24.2401C6.40767 23.9446 6.48864 23.6108 6.48864 23.2386C6.48864 22.858 6.40483 22.5185 6.23722 22.2202C6.07244 21.919 5.84517 21.6818 5.5554 21.5085C5.26563 21.3352 4.93466 21.2472 4.5625 21.2443C4.29545 21.2415 4.02131 21.2827 3.74006 21.3679C3.45881 21.4503 3.22727 21.5568 3.04545 21.6875L2.05682 21.5682L2.58523 17.2727H7.11932V18.2102H3.47159L3.16477 20.7841H3.21591C3.39489 20.642 3.61932 20.5241 3.8892 20.4304C4.15909 20.3366 4.44034 20.2898 4.73295 20.2898C5.26705 20.2898 5.7429 20.4176 6.16051 20.6733C6.58097 20.9261 6.91051 21.2727 7.14915 21.7131C7.39062 22.1534 7.51136 22.6562 7.51136 23.2216C7.51136 23.7784 7.38636 24.2756 7.13636 24.7131C6.8892 25.1477 6.5483 25.4915 6.11364 25.7443C5.67898 25.9943 5.18466 26.1193 4.63068 26.1193Z" fill="#FF8352"/>
<line y1="14.5" x2="10" y2="14.5" stroke="black"/>
</svg>
