<svg width="14" height="27" viewBox="0 0 14 27" fill="none" xmlns="http://www.w3.org/2000/svg">
<path d="M3.97159 3.27273V12H2.91477V4.38068H2.86364L0.732955 5.79545V4.72159L2.91477 3.27273H3.97159ZM9.32812 12.1193C8.68608 12.1193 8.1392 11.9446 7.6875 11.5952C7.2358 11.2429 6.89063 10.733 6.65199 10.0653C6.41335 9.39489 6.29403 8.58523 6.29403 7.63636C6.29403 6.69318 6.41335 5.88778 6.65199 5.22017C6.89347 4.54972 7.24006 4.03835 7.69176 3.68608C8.14631 3.33097 8.69176 3.15341 9.32812 3.15341C9.96449 3.15341 10.5085 3.33097 10.9602 3.68608C11.4148 4.03835 11.7614 4.54972 12 5.22017C12.2415 5.88778 12.3622 6.69318 12.3622 7.63636C12.3622 8.58523 12.2429 9.39489 12.0043 10.0653C11.7656 10.733 11.4205 11.2429 10.9688 11.5952C10.517 11.9446 9.97017 12.1193 9.32812 12.1193ZM9.32812 11.1818C9.96449 11.1818 10.4588 10.875 10.8111 10.2614C11.1634 9.64773 11.3395 8.77273 11.3395 7.63636C11.3395 6.88068 11.2585 6.23722 11.0966 5.70597C10.9375 5.17472 10.7074 4.76989 10.4062 4.49148C10.108 4.21307 9.74858 4.07386 9.32812 4.07386C8.69744 4.07386 8.20455 4.38494 7.84943 5.0071C7.49432 5.62642 7.31676 6.50284 7.31676 7.63636C7.31676 8.39205 7.39631 9.03409 7.5554 9.5625C7.71449 10.0909 7.94318 10.4929 8.24148 10.7685C8.54261 11.044 8.90483 11.1818 9.32812 11.1818Z" fill="#57C78B"/>
<path d="M3.97159 17.2727V26H2.91477V18.3807H2.86364L0.732955 19.7955V18.7216L2.91477 17.2727H3.97159ZM6.48153 26V25.233L9.36222 22.0795C9.70028 21.7102 9.97869 21.3892 10.1974 21.1165C10.4162 20.8409 10.5781 20.5824 10.6832 20.3409C10.7912 20.0966 10.8452 19.8409 10.8452 19.5739C10.8452 19.267 10.7713 19.0014 10.6236 18.777C10.4787 18.5526 10.2798 18.3793 10.027 18.2571C9.77415 18.1349 9.49006 18.0739 9.17472 18.0739C8.83949 18.0739 8.54688 18.1435 8.29688 18.2827C8.04972 18.419 7.85795 18.6108 7.72159 18.858C7.58807 19.1051 7.52131 19.3949 7.52131 19.7273H6.51562C6.51562 19.2159 6.63352 18.767 6.86932 18.3807C7.10511 17.9943 7.42614 17.6932 7.83239 17.4773C8.24148 17.2614 8.70028 17.1534 9.20881 17.1534C9.72017 17.1534 10.1733 17.2614 10.5682 17.4773C10.9631 17.6932 11.2727 17.9844 11.4972 18.3509C11.7216 18.7173 11.8338 19.125 11.8338 19.5739C11.8338 19.8949 11.7756 20.2088 11.6591 20.5156C11.5455 20.8196 11.3466 21.1591 11.0625 21.5341C10.7812 21.9062 10.3906 22.3608 9.89062 22.8977L7.9304 24.9943V25.0625H11.9872V26H6.48153Z" fill="#57C78B"/>
<line x1="2" y1="14.5" x2="12" y2="14.5" stroke="black"/>
</svg>
