<svg width="14" height="27" viewBox="0 0 14 27" fill="none" xmlns="http://www.w3.org/2000/svg">
<path d="M6.80114 12.1193C6.44318 12.1136 6.08523 12.0455 5.72727 11.9148C5.36932 11.7841 5.04261 11.5639 4.74716 11.2543C4.4517 10.9418 4.21449 10.5199 4.03551 9.98864C3.85653 9.45455 3.76705 8.78409 3.76705 7.97727C3.76705 7.20455 3.83949 6.51989 3.98438 5.9233C4.12926 5.32386 4.33949 4.8196 4.61506 4.41051C4.89063 3.99858 5.22301 3.68608 5.61222 3.47301C6.00426 3.25994 6.44602 3.15341 6.9375 3.15341C7.42614 3.15341 7.8608 3.25142 8.24148 3.44744C8.625 3.64062 8.9375 3.91051 9.17898 4.2571C9.42045 4.60369 9.5767 5.00284 9.64773 5.45455H8.60795C8.51136 5.0625 8.32386 4.73722 8.04545 4.47869C7.76705 4.22017 7.39773 4.09091 6.9375 4.09091C6.26136 4.09091 5.72869 4.38494 5.33949 4.97301C4.95313 5.56108 4.75852 6.38636 4.75568 7.44886H4.82386C4.98295 7.20739 5.17188 7.00142 5.39062 6.83097C5.61222 6.65767 5.85653 6.52415 6.12358 6.4304C6.39063 6.33665 6.6733 6.28977 6.97159 6.28977C7.47159 6.28977 7.92898 6.41477 8.34375 6.66477C8.75852 6.91193 9.09091 7.25426 9.34091 7.69176C9.59091 8.12642 9.71591 8.625 9.71591 9.1875C9.71591 9.72727 9.59517 10.2216 9.35369 10.6705C9.11222 11.1165 8.77273 11.4716 8.33523 11.7358C7.90057 11.9972 7.3892 12.125 6.80114 12.1193ZM6.80114 11.1818C7.15909 11.1818 7.48011 11.0923 7.7642 10.9134C8.05114 10.7344 8.27699 10.4943 8.44176 10.1932C8.60938 9.89205 8.69318 9.55682 8.69318 9.1875C8.69318 8.8267 8.61222 8.49858 8.45028 8.20312C8.29119 7.90483 8.07102 7.66761 7.78977 7.49148C7.51136 7.31534 7.19318 7.22727 6.83523 7.22727C6.56534 7.22727 6.31392 7.28125 6.08097 7.3892C5.84801 7.49432 5.64347 7.6392 5.46733 7.82386C5.29403 8.00852 5.15767 8.22017 5.05824 8.45881C4.95881 8.6946 4.90909 8.94318 4.90909 9.20455C4.90909 9.55114 4.99006 9.875 5.15199 10.1761C5.31676 10.4773 5.54119 10.7202 5.82528 10.9048C6.11222 11.0895 6.4375 11.1818 6.80114 11.1818Z" fill="#FEC1C9"/>
<path d="M3.97159 17.2727V26H2.91477V18.3807H2.86364L0.732955 19.7955V18.7216L2.91477 17.2727H3.97159ZM9.32812 26.1193C8.68608 26.1193 8.1392 25.9446 7.6875 25.5952C7.2358 25.2429 6.89063 24.733 6.65199 24.0653C6.41335 23.3949 6.29403 22.5852 6.29403 21.6364C6.29403 20.6932 6.41335 19.8878 6.65199 19.2202C6.89347 18.5497 7.24006 18.0384 7.69176 17.6861C8.14631 17.331 8.69176 17.1534 9.32812 17.1534C9.96449 17.1534 10.5085 17.331 10.9602 17.6861C11.4148 18.0384 11.7614 18.5497 12 19.2202C12.2415 19.8878 12.3622 20.6932 12.3622 21.6364C12.3622 22.5852 12.2429 23.3949 12.0043 24.0653C11.7656 24.733 11.4205 25.2429 10.9688 25.5952C10.517 25.9446 9.97017 26.1193 9.32812 26.1193ZM9.32812 25.1818C9.96449 25.1818 10.4588 24.875 10.8111 24.2614C11.1634 23.6477 11.3395 22.7727 11.3395 21.6364C11.3395 20.8807 11.2585 20.2372 11.0966 19.706C10.9375 19.1747 10.7074 18.7699 10.4062 18.4915C10.108 18.2131 9.74858 18.0739 9.32812 18.0739C8.69744 18.0739 8.20455 18.3849 7.84943 19.0071C7.49432 19.6264 7.31676 20.5028 7.31676 21.6364C7.31676 22.392 7.39631 23.0341 7.5554 23.5625C7.71449 24.0909 7.94318 24.4929 8.24148 24.7685C8.54261 25.044 8.90483 25.1818 9.32812 25.1818Z" fill="#FEC1C9"/>
<line x1="2" y1="14.5" x2="12" y2="14.5" stroke="black"/>
</svg>
