<svg width="10" height="27" viewBox="0 0 10 27" fill="none" xmlns="http://www.w3.org/2000/svg">
<path d="M4.63068 12.1193C4.13068 12.1193 3.6804 12.0199 3.27983 11.821C2.87926 11.6222 2.55824 11.3494 2.31676 11.0028C2.07528 10.6562 1.94318 10.2614 1.92045 9.81818H2.94318C2.98295 10.2131 3.16193 10.5398 3.48011 10.7983C3.80114 11.054 4.18466 11.1818 4.63068 11.1818C4.98864 11.1818 5.30682 11.098 5.58523 10.9304C5.86648 10.7628 6.08665 10.5327 6.24574 10.2401C6.40767 9.9446 6.48864 9.6108 6.48864 9.23864C6.48864 8.85795 6.40483 8.51847 6.23722 8.22017C6.07244 7.91903 5.84517 7.68182 5.5554 7.50852C5.26563 7.33523 4.93466 7.24716 4.5625 7.24432C4.29545 7.24148 4.02131 7.28267 3.74006 7.3679C3.45881 7.45028 3.22727 7.55682 3.04545 7.6875L2.05682 7.56818L2.58523 3.27273H7.11932V4.21023H3.47159L3.16477 6.78409H3.21591C3.39489 6.64205 3.61932 6.52415 3.8892 6.4304C4.15909 6.33665 4.44034 6.28977 4.73295 6.28977C5.26705 6.28977 5.7429 6.41761 6.16051 6.6733C6.58097 6.92614 6.91051 7.27273 7.14915 7.71307C7.39062 8.15341 7.51136 8.65625 7.51136 9.22159C7.51136 9.77841 7.38636 10.2756 7.13636 10.7131C6.8892 11.1477 6.5483 11.4915 6.11364 11.7443C5.67898 11.9943 5.18466 12.1193 4.63068 12.1193Z" fill="#57C78B"/>
<path d="M4.80114 26.1193C4.44318 26.1136 4.08523 26.0455 3.72727 25.9148C3.36932 25.7841 3.04261 25.5639 2.74716 25.2543C2.4517 24.9418 2.21449 24.5199 2.03551 23.9886C1.85653 23.4545 1.76705 22.7841 1.76705 21.9773C1.76705 21.2045 1.83949 20.5199 1.98438 19.9233C2.12926 19.3239 2.33949 18.8196 2.61506 18.4105C2.89063 17.9986 3.22301 17.6861 3.61222 17.473C4.00426 17.2599 4.44602 17.1534 4.9375 17.1534C5.42614 17.1534 5.8608 17.2514 6.24148 17.4474C6.625 17.6406 6.9375 17.9105 7.17898 18.2571C7.42045 18.6037 7.5767 19.0028 7.64773 19.4545H6.60795C6.51136 19.0625 6.32386 18.7372 6.04545 18.4787C5.76705 18.2202 5.39773 18.0909 4.9375 18.0909C4.26136 18.0909 3.72869 18.3849 3.33949 18.973C2.95313 19.5611 2.75852 20.3864 2.75568 21.4489H2.82386C2.98295 21.2074 3.17188 21.0014 3.39062 20.831C3.61222 20.6577 3.85653 20.5241 4.12358 20.4304C4.39063 20.3366 4.6733 20.2898 4.97159 20.2898C5.47159 20.2898 5.92898 20.4148 6.34375 20.6648C6.75852 20.9119 7.09091 21.2543 7.34091 21.6918C7.59091 22.1264 7.71591 22.625 7.71591 23.1875C7.71591 23.7273 7.59517 24.2216 7.35369 24.6705C7.11222 25.1165 6.77273 25.4716 6.33523 25.7358C5.90057 25.9972 5.3892 26.125 4.80114 26.1193ZM4.80114 25.1818C5.15909 25.1818 5.48011 25.0923 5.7642 24.9134C6.05114 24.7344 6.27699 24.4943 6.44176 24.1932C6.60938 23.892 6.69318 23.5568 6.69318 23.1875C6.69318 22.8267 6.61222 22.4986 6.45028 22.2031C6.29119 21.9048 6.07102 21.6676 5.78977 21.4915C5.51136 21.3153 5.19318 21.2273 4.83523 21.2273C4.56534 21.2273 4.31392 21.2812 4.08097 21.3892C3.84801 21.4943 3.64347 21.6392 3.46733 21.8239C3.29403 22.0085 3.15767 22.2202 3.05824 22.4588C2.95881 22.6946 2.90909 22.9432 2.90909 23.2045C2.90909 23.5511 2.99006 23.875 3.15199 24.1761C3.31676 24.4773 3.54119 24.7202 3.82528 24.9048C4.11222 25.0895 4.4375 25.1818 4.80114 25.1818Z" fill="#57C78B"/>
<line y1="14.5" x2="10" y2="14.5" stroke="black"/>
</svg>
