<svg width="10" height="27" viewBox="0 0 10 27" fill="none" xmlns="http://www.w3.org/2000/svg">
<path d="M5.97159 3.27273V12H4.91477V4.38068H4.86364L2.73295 5.79545V4.72159L4.91477 3.27273H5.97159Z" fill="#FA686A"/>
<path d="M1.90341 26V25.233L4.78409 22.0795C5.12216 21.7102 5.40057 21.3892 5.61932 21.1165C5.83807 20.8409 6 20.5824 6.10511 20.3409C6.21307 20.0966 6.26705 19.8409 6.26705 19.5739C6.26705 19.267 6.19318 19.0014 6.04545 18.777C5.90057 18.5526 5.7017 18.3793 5.44886 18.2571C5.19602 18.1349 4.91193 18.0739 4.59659 18.0739C4.26136 18.0739 3.96875 18.1435 3.71875 18.2827C3.47159 18.419 3.27983 18.6108 3.14347 18.858C3.00994 19.1051 2.94318 19.3949 2.94318 19.7273H1.9375C1.9375 19.2159 2.0554 18.767 2.29119 18.3807C2.52699 17.9943 2.84801 17.6932 3.25426 17.4773C3.66335 17.2614 4.12216 17.1534 4.63068 17.1534C5.14205 17.1534 5.59517 17.2614 5.99006 17.4773C6.38494 17.6932 6.6946 17.9844 6.91903 18.3509C7.14347 18.7173 7.25568 19.125 7.25568 19.5739C7.25568 19.8949 7.19744 20.2088 7.08097 20.5156C6.96733 20.8196 6.76847 21.1591 6.48438 21.5341C6.20312 21.9062 5.8125 22.3608 5.3125 22.8977L3.35227 24.9943V25.0625H7.40909V26H1.90341Z" fill="#FA686A"/>
<line y1="14.5" x2="10" y2="14.5" stroke="black"/>
</svg>
