<svg width="10" height="27" viewBox="0 0 10 27" fill="none" xmlns="http://www.w3.org/2000/svg">
<path d="M5.97159 3.27273V12H4.91477V4.38068H4.86364L2.73295 5.79545V4.72159L4.91477 3.27273H5.97159Z" fill="#FECB02"/>
<path d="M4.85227 26.1193C4.28977 26.1193 3.78835 26.0227 3.34801 25.8295C2.91051 25.6364 2.5625 25.3679 2.30398 25.0241C2.0483 24.6776 1.90909 24.2756 1.88636 23.8182H2.96023C2.98295 24.0994 3.07955 24.3423 3.25 24.5469C3.42045 24.7486 3.64347 24.9048 3.91903 25.0156C4.1946 25.1264 4.5 25.1818 4.83523 25.1818C5.21023 25.1818 5.54261 25.1165 5.83239 24.9858C6.12216 24.8551 6.34943 24.6733 6.5142 24.4403C6.67898 24.2074 6.76136 23.9375 6.76136 23.6307C6.76136 23.3097 6.68182 23.027 6.52273 22.7827C6.36364 22.5355 6.13068 22.3423 5.82386 22.2031C5.51705 22.0639 5.14205 21.9943 4.69886 21.9943H4V21.0568H4.69886C5.04545 21.0568 5.34943 20.9943 5.6108 20.8693C5.875 20.7443 6.08097 20.5682 6.22869 20.3409C6.37926 20.1136 6.45455 19.8466 6.45455 19.5398C6.45455 19.2443 6.3892 18.9872 6.25852 18.7685C6.12784 18.5497 5.94318 18.3793 5.70455 18.2571C5.46875 18.1349 5.19034 18.0739 4.86932 18.0739C4.56818 18.0739 4.28409 18.1293 4.01705 18.2401C3.75284 18.348 3.53693 18.5057 3.36932 18.7131C3.2017 18.9176 3.1108 19.1648 3.09659 19.4545H2.07386C2.09091 18.9972 2.22869 18.5966 2.48722 18.2528C2.74574 17.9062 3.08381 17.6364 3.50142 17.4432C3.92188 17.25 4.38352 17.1534 4.88636 17.1534C5.42614 17.1534 5.8892 17.2628 6.27557 17.4815C6.66193 17.6974 6.95881 17.983 7.16619 18.3381C7.37358 18.6932 7.47727 19.0767 7.47727 19.4886C7.47727 19.9801 7.34801 20.3991 7.08949 20.7457C6.83381 21.0923 6.4858 21.3324 6.04545 21.4659V21.5341C6.59659 21.625 7.02699 21.8594 7.33665 22.2372C7.64631 22.6122 7.80114 23.0767 7.80114 23.6307C7.80114 24.1051 7.67188 24.5312 7.41335 24.9091C7.15767 25.2841 6.80824 25.5795 6.36506 25.7955C5.92188 26.0114 5.41761 26.1193 4.85227 26.1193Z" fill="#FECB02"/>
<line y1="14.5" x2="10" y2="14.5" stroke="black"/>
</svg>
